<svg xmlns="http://www.w3.org/2000/svg" xml:space="preserve" id="Layer_1" x="0" y="0"
    style="enable-background:new 0 0 1813.13 302.19" version="1.1" viewBox="0 0 1813.13 302.19">
    <path
        d="M24.09 229.93c11.82 15.33 30.66 23.21 47.3 23.21 17.52 0 29.78-13.14 29.78-31.97 0-22.77-17.08-35.04-36.79-49.49-25.84-18.39-56.06-39.42-56.06-90.22C8.32 37.66 38.1 0 89.78 0c24.53 0 47.3 8.32 63.5 23.65l-21.46 42.48c-11.39-11.82-24.96-17.08-39.85-17.08-16.2 0-27.59 11.83-27.59 29.34 0 19.27 16.2 31.97 35.04 45.99 26.72 19.27 57.81 42.48 57.81 93.28 0 49.05-31.97 84.53-81.9 84.53-31.97 0-56.5-10.07-75.33-28.91l24.09-43.35zm191.39 67.01V53.43h-44.23V4.82H314.9v48.61h-44.23v243.5h-55.19zm225.55 0-8.76-53.87h-60.44l-8.76 53.87H309.2L370.08 4.82h63.5l61.31 292.12h-53.86zM402.05 55.18 378.4 194.45h47.3L402.05 55.18zm220.29 241.76-31.53-107.3h-17.96v107.3h-55.18V4.82h81.46c46.42 0 79.71 37.23 79.71 90.66 0 49.49-21.02 71.82-37.66 80.58l40.29 120.88h-59.13zM590.81 53.43h-17.96v87.59h17.96c20.58 0 31.97-17.52 31.97-43.8 0-26.71-11.38-43.79-31.97-43.79zm128.32 243.51V4.82h127.88v48.61h-72.7v70.51h69.64v48.61h-69.64v124.38h-55.18zM883.8 4.82h55.18v210.22c0 28.47 10.95 38.54 28.03 38.54 16.64 0 28.03-10.07 28.03-38.54V4.82h55.18v207.59c0 62.63-39.85 89.78-83.21 89.78-43.36 0-83.21-27.15-83.21-89.78V4.82zm326.28 292.12-59.56-176.5v176.5h-54.75V4.82h55.18l56.5 167.74V4.82h54.74v292.12h-52.11zm211.96 0-59.56-176.5v176.5h-54.75V4.82h55.18l56.5 167.74V4.82h54.74v292.12h-52.11zm97.67 0V4.82h127.88v48.61h-72.7v70.51h69.64v48.61h-69.64v75.77h72.7v48.61h-127.88zm165.54 0V4.82h55.18v243.5h72.7v48.61h-127.88z"
        fill="currentColor" />
</svg>