<?xml version="1.0" encoding="UTF-8" standalone="no"?>
<!-- Created with Inkscape (http://www.inkscape.org/) -->

<svg
   width="60.430668mm"
   height="8.8476381mm"
   viewBox="0 0 60.430668 8.8476381"
   version="1.1"
   id="svg5"
   inkscape:version="1.2.2 (732a01da63, 2022-12-09)"
   sodipodi:docname="th-logo-text.svg"
   xmlns:inkscape="http://www.inkscape.org/namespaces/inkscape"
   xmlns:sodipodi="http://sodipodi.sourceforge.net/DTD/sodipodi-0.dtd"
   xmlns="http://www.w3.org/2000/svg"
   xmlns:svg="http://www.w3.org/2000/svg">
  <sodipodi:namedview
     id="namedview7"
     pagecolor="#ffffff"
     bordercolor="#000000"
     borderopacity="0.25"
     inkscape:showpageshadow="2"
     inkscape:pageopacity="0.0"
     inkscape:pagecheckerboard="0"
     inkscape:deskcolor="#d1d1d1"
     inkscape:document-units="mm"
     showgrid="false"
     inkscape:zoom="0.5946522"
     inkscape:cx="154.71228"
     inkscape:cy="-14.29407"
     inkscape:window-width="1128"
     inkscape:window-height="682"
     inkscape:window-x="453"
     inkscape:window-y="1145"
     inkscape:window-maximized="1"
     inkscape:current-layer="layer1" />
  <defs
     id="defs2" />
  <g
     inkscape:label="Layer 1"
     inkscape:groupmode="layer"
     id="layer1"
     transform="translate(-8.6809582,-147.27729)">
    <g
       aria-label="tribehacks"
       id="text236"
       style="font-size:10.5833px;font-family:poppins;-inkscape-font-specification:poppins;text-align:center;text-anchor:middle;fill:none;stroke:#000000;stroke-width:0.25;paint-order:markers fill stroke">
      <path
         d="m 12.766112,154.0506 v 2.00024 h -0.888997 q -2.4553258,0 -2.4553258,-2.44474 v -1.56633 h -0.740831 v -1.95791 h 0.740831 v -1.43933 h 2.3494928 v 1.43933 h 0.973663 v 1.95791 h -0.973663 v 1.60866 q 0,0.21167 0.09525,0.30692 0.105833,0.0952 0.338666,0.0952 z"
         style="font-weight:900;font-family:Poppins;-inkscape-font-specification:'Poppins, Heavy';fill:#000000;stroke:none"
         id="path1676" />
      <path
         d="m 16.015194,151.18252 q 0.359832,-0.51858 0.878414,-0.82549 0.518581,-0.3175 1.079496,-0.3175 v 2.50824 h -0.666748 q -0.666748,0 -0.984247,0.23283 -0.306915,0.23284 -0.306915,0.8255 v 2.44474 h -2.349493 v -5.96898 h 2.349493 z"
         style="font-weight:900;font-family:Poppins;-inkscape-font-specification:'Poppins, Heavy';fill:#000000;stroke:none"
         id="path1678" />
      <path
         d="m 19.793441,149.60561 q -0.613831,0 -0.984247,-0.32808 -0.370415,-0.32808 -0.370415,-0.8255 0,-0.508 0.370415,-0.83608 0.370416,-0.33866 0.984247,-0.33866 0.603248,0 0.973664,0.33866 0.370415,0.32808 0.370415,0.83608 0,0.49742 -0.370415,0.8255 -0.370416,0.32808 -0.973664,0.32808 z m 1.164163,0.47625 v 5.96898 h -2.349492 v -5.96898 z"
         style="font-weight:900;font-family:Poppins;-inkscape-font-specification:'Poppins, Heavy';fill:#000000;stroke:none"
         id="path1680" />
      <path
         d="m 24.365432,150.89678 q 0.22225,-0.41275 0.634998,-0.64559 0.423332,-0.24341 1.005414,-0.24341 0.698498,0 1.259413,0.37041 0.560914,0.35984 0.878413,1.05833 0.328083,0.68792 0.328083,1.62983 0,0.94192 -0.328083,1.64041 -0.317499,0.68792 -0.878413,1.05833 -0.560915,0.35984 -1.259413,0.35984 -0.582082,0 -1.005414,-0.23284 -0.412748,-0.24341 -0.634998,-0.65616 v 0.81491 H 22.01594 v -7.83164 h 2.349492 z m 1.725078,2.16957 q 0,-0.47625 -0.243416,-0.74083 -0.243415,-0.26458 -0.624414,-0.26458 -0.380999,0 -0.624415,0.26458 -0.243416,0.26458 -0.243416,0.74083 0,0.47625 0.243416,0.74083 0.243416,0.26459 0.624415,0.26459 0.380999,0 0.624414,-0.26459 0.243416,-0.26458 0.243416,-0.74083 z"
         style="font-weight:900;font-family:Poppins;-inkscape-font-specification:'Poppins, Heavy';fill:#000000;stroke:none"
         id="path1682" />
      <path
         d="m 34.991068,153.01344 q 0,0.24341 -0.03175,0.46566 H 31.18108 q 0.05292,0.77258 0.645582,0.77258 0.380998,0 0.550331,-0.34925 h 2.487076 q -0.127,0.635 -0.539749,1.143 -0.402165,0.49741 -1.02658,0.79375 -0.613831,0.28575 -1.354662,0.28575 -0.888997,0 -1.587495,-0.37042 -0.687914,-0.37042 -1.079497,-1.05833 -0.380998,-0.6985 -0.380998,-1.62983 0,-0.93133 0.380998,-1.61924 0.391583,-0.6985 1.079497,-1.06892 0.698498,-0.37041 1.587495,-0.37041 0.888997,0 1.576912,0.37041 0.698497,0.35984 1.079496,1.03717 0.391582,0.67733 0.391582,1.59808 z m -2.381242,-0.56092 q 0,-0.29633 -0.1905,-0.4445 -0.190499,-0.15875 -0.476248,-0.15875 -0.624415,0 -0.730248,0.60325 z"
         style="font-weight:900;font-family:Poppins;-inkscape-font-specification:'Poppins, Heavy';fill:#000000;stroke:none"
         id="path1684" />
      <path
         d="m 39.912294,150.03953 q 1.02658,0 1.598079,0.68791 0.582081,0.68792 0.582081,1.86266 v 3.46074 h -2.338909 v -3.1644 q 0,-0.42334 -0.232833,-0.66675 -0.222249,-0.254 -0.603248,-0.254 -0.391582,0 -0.613831,0.254 -0.22225,0.24341 -0.22225,0.66675 v 3.1644 h -2.349492 v -7.83164 h 2.349492 v 2.77283 q 0.275166,-0.42334 0.730248,-0.68792 0.465665,-0.26458 1.100663,-0.26458 z"
         style="font-weight:900;font-family:Poppins;-inkscape-font-specification:'Poppins, Heavy';fill:#000000;stroke:none"
         id="path1686" />
      <path
         d="m 42.790958,153.06635 q 0,-0.94191 0.317499,-1.62983 0.328082,-0.69849 0.888997,-1.05833 0.560915,-0.37041 1.259413,-0.37041 0.582081,0 1.005413,0.24341 0.423332,0.23284 0.645581,0.64559 v -0.81492 h 2.33891 v 5.96898 h -2.33891 v -0.81491 q -0.222249,0.41275 -0.645581,0.65616 -0.423332,0.23284 -1.005413,0.23284 -0.698498,0 -1.259413,-0.35984 -0.560915,-0.37041 -0.888997,-1.05833 -0.317499,-0.69849 -0.317499,-1.64041 z m 4.116903,0 q 0,-0.47625 -0.243415,-0.74083 -0.243416,-0.26458 -0.624415,-0.26458 -0.380999,0 -0.624415,0.26458 -0.243416,0.26458 -0.243416,0.74083 0,0.47625 0.243416,0.74083 0.243416,0.26459 0.624415,0.26459 0.380999,0 0.624415,-0.26459 0.243415,-0.26458 0.243415,-0.74083 z"
         style="font-weight:900;font-family:Poppins;-inkscape-font-specification:'Poppins, Heavy';fill:#000000;stroke:none"
         id="path1688" />
      <path
         d="m 49.987606,153.06635 q 0,-0.93133 0.380998,-1.61924 0.391582,-0.6985 1.079497,-1.06892 0.698498,-0.37041 1.587495,-0.37041 1.164163,0 1.95791,0.65616 0.804331,0.65617 1.015997,1.82033 h -2.487075 q -0.137583,-0.46566 -0.539749,-0.46566 -0.285749,0 -0.455082,0.26458 -0.158749,0.26458 -0.158749,0.78316 0,0.51858 0.158749,0.78317 0.169333,0.26458 0.455082,0.26458 0.402166,0 0.539749,-0.46567 h 2.487075 q -0.211666,1.16417 -1.015997,1.82033 -0.793747,0.65617 -1.95791,0.65617 -0.888997,0 -1.587495,-0.37042 -0.687915,-0.37042 -1.079497,-1.05833 -0.380998,-0.6985 -0.380998,-1.62983 z"
         style="font-weight:900;font-family:Poppins;-inkscape-font-specification:'Poppins, Heavy';fill:#000000;stroke:none"
         id="path1690" />
      <path
         d="m 60.570897,156.05084 -1.471079,-2.38124 v 2.38124 h -2.349493 v -7.83164 h 2.349493 v 4.09574 l 1.492245,-2.23308 h 2.730492 l -2.233077,3.00566 2.285993,2.96332 z"
         style="font-weight:900;font-family:Poppins;-inkscape-font-specification:'Poppins, Heavy';fill:#000000;stroke:none"
         id="path1692" />
      <path
         d="m 66.56105,156.12493 q -0.846664,0 -1.502829,-0.27517 -0.645581,-0.27517 -1.02658,-0.762 -0.380999,-0.48683 -0.433915,-1.10066 h 2.254243 q 0.04233,0.26458 0.222249,0.39158 0.190499,0.127 0.476248,0.127 0.179916,0 0.285749,-0.0741 0.105833,-0.0847 0.105833,-0.20109 0,-0.20108 -0.222249,-0.28574 -0.222249,-0.0847 -0.751414,-0.1905 -0.645581,-0.127 -1.068913,-0.27517 -0.412749,-0.14817 -0.730248,-0.508 -0.306916,-0.35983 -0.306916,-0.99483 0,-0.55033 0.285749,-0.99483 0.296333,-0.45508 0.867831,-0.70908 0.571498,-0.26458 1.386412,-0.26458 1.206496,0 1.883827,0.59266 0.687915,0.59267 0.825498,1.54516 h -2.08491 q -0.05292,-0.24341 -0.22225,-0.37041 -0.169332,-0.13758 -0.455081,-0.13758 -0.179916,0 -0.275166,0.0741 -0.09525,0.0635 -0.09525,0.20108 0,0.17992 0.222249,0.27517 0.22225,0.0847 0.709081,0.17991 0.645582,0.127 1.09008,0.28575 0.444499,0.15875 0.772581,0.55033 0.328083,0.381 0.328083,1.05833 0,0.52917 -0.306916,0.9525 -0.306916,0.42333 -0.888997,0.66675 -0.571499,0.24342 -1.344079,0.24342 z"
         style="font-weight:900;font-family:Poppins;-inkscape-font-specification:'Poppins, Heavy';fill:#000000;stroke:none"
         id="path1694" />
    </g>
  </g>
</svg>
