<?xml version="1.0" encoding="utf-8"?>
<!-- Generator: Adobe Illustrator 27.9.0, SVG Export Plug-In . SVG Version: 6.00 Build 0)  -->
<svg version="1.1" id="Layer_1" xmlns="http://www.w3.org/2000/svg" xmlns:xlink="http://www.w3.org/1999/xlink" x="0px" y="0px"
	 viewBox="0 0 128 128" style="enable-background:new 0 0 128 128;" xml:space="preserve">
<style type="text/css">
	.st0{fill:#FFFFFF;}
</style>
<path d="M112.6,123.8H15.4c-6.2,0-11.2-5-11.2-11.2V15.4c0-6.2,5-11.2,11.2-11.2h97.2c6.2,0,11.2,5,11.2,11.2v97.2
	C123.8,118.8,118.8,123.8,112.6,123.8z"/>
<path class="st0" d="M70.1,20.3l7.4,23c0.9,2.7,3.3,4.4,6.1,4.4h24.1c6.3,0,8.9,8,3.8,11.7L92.2,73.5c-2.3,1.6-3.2,4.6-2.3,7.3
	l7.4,23c1.9,6-4.9,10.9-9.9,7.3L67.8,96.8c-2.3-1.6-5.3-1.6-7.6,0L40.7,111c-5.1,3.7-11.9-1.3-9.9-7.3l7.4-23
	c0.9-2.7-0.1-5.6-2.3-7.3L16.3,59.3c-5.1-3.7-2.5-11.7,3.8-11.7h24.1c2.8,0,5.2-1.8,6.1-4.4l7.4-23C59.8,14.3,68.2,14.3,70.1,20.3z"
	/>
</svg>
