<svg xmlns="http://www.w3.org/2000/svg" data-name="Layer 1" viewBox="0 0 345.66 345.67">
	<path d="m260.34 217.72.31.13-.09-.6-.22.47Z" style="fill:none;stroke-width:0" />
	<path
		d="M132.91 150.55H94.8v2.96h7.56v50.27c0 6.02-1.1 10.74-3.29 14.13-2.19 3.4-4.68 5.09-7.48 5.09s-4.66-1.04-5.59-3.12c-.93-2.08-1.4-6.41-1.4-12.98v-56.35H44.84v2.96h9.2v49.45c0 18.29 8.49 27.44 25.46 27.44 6.79 0 11.91-1.18 15.36-3.53 3.45-2.35 6.05-5.72 7.8-10.1l1.81 11.99h4.93c9.04-.9 16.7-1.96 23.49-3.18v-75.02Zm51.91 2.96h21.69v-2.96h-21.69v-26.29c0-6.9.66-11.91 1.97-15.03s4.05-4.68 8.21-4.68c5.59 0 7.28 3.72 5.09 11.17h-6.24c-.66 2.63-.99 5.34-.99 8.13s1.12 5.26 3.37 7.39c2.24 2.14 5.45 3.2 9.61 3.2s7.5-1.2 10.02-3.61c2.52-2.41 3.78-6.02 3.78-10.84s-2.03-9.06-6.08-12.73c-4.05-3.67-10.74-5.5-20.04-5.5-14.13 0-24.21 4.08-30.23 12.24-6.03 8.16-9.04 20.12-9.04 35.9v.66h-9.53v2.96h9.53v67.05c10-2.95 19.13-6.45 30.56-10.55v-56.5Zm55.4 54.28c-.24-3.59-.36-7.93-.36-13.04v-8.54c0-12.05.66-20.48 1.97-25.3s3.78-7.23 7.39-7.23 6.35 1.64 8.21 4.93c1.86 3.29 2.79 7.29 2.79 11.99v35.81c0 4.26-.69 7.72-2.06 10.38l2.17.93.22-.47.09.6a250.87 250.87 0 0 0 31.93 10.9h6.25v-2.96h-8.05V105.53H249.7v2.96h10.02v48.46c-3.07-5.36-9.42-8.05-19.06-8.05-21.69 0-32.53 13.64-32.53 40.91 0 4.37.28 8.38.83 12.05a617.68 617.68 0 0 1 16.13-4.81c4 3.65 9.16 7.26 15.11 10.73Z"
		style="stroke-width:0" />
</svg>