<?xml version="1.0" encoding="UTF-8" standalone="no"?>
<!-- Created with Inkscape (http://www.inkscape.org/) -->

<svg
   version="1.1"
   id="svg27885"
   width="800"
   height="800"
   viewBox="0 0 800 800"
   sodipodi:docname="clawdius.svg"
   inkscape:version="1.2.2 (732a01da63, 2022-12-09)"
   xmlns:inkscape="http://www.inkscape.org/namespaces/inkscape"
   xmlns:sodipodi="http://sodipodi.sourceforge.net/DTD/sodipodi-0.dtd"
   xmlns="http://www.w3.org/2000/svg"
   xmlns:svg="http://www.w3.org/2000/svg">
  <defs
     id="defs27889" />
  <sodipodi:namedview
     id="namedview27887"
     pagecolor="#ffffff"
     bordercolor="#000000"
     borderopacity="0.25"
     inkscape:showpageshadow="2"
     inkscape:pageopacity="0.0"
     inkscape:pagecheckerboard="0"
     inkscape:deskcolor="#d1d1d1"
     showgrid="false"
     inkscape:zoom="0.34766083"
     inkscape:cx="174.02018"
     inkscape:cy="421.3877"
     inkscape:window-width="1128"
     inkscape:window-height="730"
     inkscape:window-x="-6"
     inkscape:window-y="-6"
     inkscape:window-maximized="1"
     inkscape:current-layer="g27891" />
  <g
     inkscape:groupmode="layer"
     inkscape:label="Image"
     id="g27891"
     transform="translate(-1036.5828,-184.52733)">
    <path
       style="fill:#9A38F3;fill-opacity:1"
       d="m 1301.5134,915.39372 c -9.7473,-6.567 -33.1564,-28.74766 -43.6711,-41.37953 -3.8915,-4.675 -12.6214,-14.13258 -19.3999,-21.01685 -8.0552,-8.18098 -12.6483,-13.64626 -13.2595,-15.77725 -1.364,-4.75618 0.92,-11.31802 7.2176,-20.73526 4.6134,-6.89877 9.5535,-13.82586 30.0402,-42.12263 3.1079,-4.29283 5.4205,-6.34801 7.1429,-6.34801 0.1628,0 4.1614,3.7125 8.8856,8.25 9.2936,8.92632 13.8333,11.23642 33.889,17.24479 9.0933,2.72421 11.7657,4.41442 11.7657,7.44141 0,0.98633 -4.6618,8.04169 -10.3596,15.67857 -5.6977,7.63688 -12.2737,17.39157 -14.6133,21.6771 l -4.2539,7.79187 6.0356,15.20813 c 3.3195,8.36447 7.1921,19.62272 8.6056,25.01833 1.4136,5.39561 3.7405,12.7356 5.1709,16.3111 2.8212,7.05188 2.6818,10.11156 -0.6108,13.40414 -2.7847,2.78475 -7.8811,2.52318 -12.585,-0.64591 z m 0.4625,-36.81997 c -0.7465,-0.65971 -4.852,-1.66838 -4.852,-1.19205 0,0.27626 0.4674,1.73179 1.0388,3.23452 l 1.0388,2.73222 1.5632,-2.23179 c 0.8597,-1.22749 1.4048,-2.37179 1.2112,-2.5429 z m 438.7643,35.43756 c -1.989,-2.20159 -3.6163,-4.49626 -3.6163,-5.09927 0,-0.60302 -1.5507,-3.63922 -3.4459,-6.74712 -3.2583,-5.34292 -6.4714,-13.00849 -21.8596,-52.15073 -10.3054,-26.21333 -15.2154,-39.16002 -16.6867,-44 -1.8995,-6.24813 -2.3443,-6.64419 -8.2669,-7.36163 -9.4131,-1.14026 -48.0797,-11.26252 -54.84,-14.35619 -6.8995,-3.15735 -12.6226,-8.95902 -11.5627,-11.72125 0.308,-0.80271 4.5466,-3.78963 9.419,-6.6376 7.5627,-4.42043 9.5821,-6.19623 13.8009,-12.13588 2.718,-3.82676 5.6169,-7.32312 6.4419,-7.76969 3.944,-2.13486 18.8207,-3.46753 38.5,-3.44886 20.4266,0.0194 21.2048,0.0953 28.5,2.78059 16.5808,6.10322 21.0435,12.64774 26.3565,38.65192 4.5505,22.27203 6.7164,43.62581 8.6212,84.99859 0.5697,12.375 1.2941,27.52619 1.6098,33.66931 0.5341,10.39531 0.4297,11.31349 -1.5068,13.25 -3.3553,3.35526 -7.293,2.69504 -11.4644,-1.92219 z m -366.5851,1.04335 c -1.9968,-1.26284 -2.8744,-11.98151 -2.951,-36.04047 -0.051,-15.96581 0.4734,-23.70328 2.8927,-42.69175 4.0708,-31.9512 6.7787,-41.78727 16.0525,-58.30825 6.2207,-11.08198 11.4294,-17.59619 16.3978,-20.50789 l 4.4212,-2.591 6.1649,2.02382 c 8.5051,2.79207 17.1072,9.23409 27.5933,20.66417 l 8.8974,9.69841 -0.1171,6.60624 c -0.1397,7.8871 -3.4379,17.31511 -7.4668,21.34396 -3.5133,3.51327 -7.6104,3.58334 -14.7654,0.25252 -2.9421,-1.36963 -5.6834,-2.49023 -6.0917,-2.49023 -0.4084,0 -1.3047,1.9125 -1.9919,4.25 -1.6104,5.4782 -10.3698,26.33749 -14.6335,34.84788 -1.8181,3.62883 -4.5224,10.35682 -6.0096,14.95108 -1.4873,4.59427 -4.8316,13.32523 -7.4319,19.40213 -2.6002,6.0769 -5.7452,13.97391 -6.9889,17.54891 -3.3349,9.58582 -9.0862,14.13046 -13.972,11.04047 z m 205.7656,-26.98567 c -2.6224,-2.06278 -4.2498,-6.94337 -9.2519,-27.74734 -3.1303,-13.01861 -12.3728,-43.54472 -15.3832,-50.80746 -3.9353,-9.49397 -9.3231,-29.48951 -8.7023,-32.29627 0.7042,-3.18346 13.631,-22.42072 20.1279,-29.95373 3.8163,-4.42486 5.0648,-5.25 7.9436,-5.25 1.8785,0 5.4393,0.98322 7.9128,2.18493 5.2849,2.56758 6.3465,4.51404 15.2008,27.86962 l 5.8555,15.44545 -0.1109,12 c -0.1123,12.15628 -0.927,21.18988 -4.5023,49.9207 -2.3373,18.78282 -3.358,24.09283 -6.1279,31.87919 -3.0152,8.47583 -7.6823,10.908 -12.9621,6.75491 z m -434.5238,-55.75624 c -2.7964,-4.26072 -2.9297,-20.9468 -0.3073,-38.48775 4.4773,-29.94812 20.5887,-96.96252 25.7994,-107.31081 1.9855,-3.94308 7.0445,-11.30208 10.1401,-14.75 4.2611,-4.74608 9.9653,-3.50411 22.6802,4.93809 5.8635,3.89312 6.1409,4.5737 10.8926,26.7179 2.3291,10.85412 2.9008,12.28133 6.4707,16.15426 4.5098,4.89248 15.0513,20.87474 15.0513,22.81959 0,0.7206 -0.8955,2.12058 -1.99,3.11105 -1.663,1.50502 -3.1005,1.70411 -8.75,1.21187 -3.718,-0.32395 -9.3323,-1.48512 -12.4761,-2.58037 l -5.7162,-1.99136 -3.9448,7.18449 c -2.1697,3.95146 -9.3864,17.70438 -16.0372,30.56204 -23.3666,45.17349 -29.9825,55.12244 -36.6553,55.12244 -2.573,0 -3.8094,-0.64761 -5.1574,-2.70144 z m 383.227,-15.49151 c -1.1,-0.62267 -5.4838,-3.81232 -9.7417,-7.08811 -7.8906,-6.07052 -11.7583,-10.83947 -11.7583,-14.49808 0,-6.07378 15.7811,-11.28473 24.7289,-8.16552 3.4845,1.2147 3.8694,2.62994 4.906,18.03978 0.6255,9.29922 0.5726,9.64615 -1.7173,11.25 -2.7559,1.9303 -3.7032,1.99849 -6.4176,0.46193 z m -187,-35.26418 c -8.8154,-1.60771 -26.0578,-6.9581 -34.2903,-10.64038 -5.8042,-2.59617 -19.2097,-13.80615 -19.2097,-16.0636 0,-0.46425 1.715,-2.39353 3.8112,-4.28728 4.333,-3.91463 8.6331,-12.0469 9.6578,-18.26476 0.9154,-5.55457 -1.4849,-13.68209 -5.4559,-18.47427 -6.8082,-8.21608 -20.8197,-11.26403 -30.6149,-6.65975 -4.598,2.16131 -9.8411,6.64073 -12.1207,10.35523 -1.1491,1.87237 -1.6147,1.57943 -7.7576,-4.88018 -5.1955,-5.46346 -6.8688,-8.02574 -8.1632,-12.5 -0.8955,-3.09533 -1.7941,-6.07788 -1.997,-6.62788 -0.2028,-0.55 1.3805,-1.06433 3.5185,-1.14295 6.0425,-0.22221 16.6951,-5.7853 20.113,-10.50367 10.1284,-13.9818 1.6875,-38.8136 -15.0876,-44.38538 -5.0226,-1.66824 -14.2137,-1.68414 -18.0722,-0.0313 -1.4084,0.6033 -1.7811,-0.18556 -2.3899,-5.05838 -0.9783,-7.82976 0.1865,-25.2557 1.9691,-29.45858 3.2188,-7.5892 25.5241,-44.22679 33.1064,-54.37898 2.2094,-2.95819 6.2307,-7.32753 8.9363,-9.70965 l 4.9192,-4.33113 10.0083,-0.15127 c 5.5046,-0.0832 10.9411,0.20337 12.0812,0.63682 1.1401,0.43346 4.8183,3.49969 8.1739,6.81384 6.6883,6.60583 11.1192,9.24248 19.4072,11.54852 3.0013,0.83506 7.4554,2.25083 9.8981,3.14615 2.4426,0.89532 9.5981,2.1331 15.901,2.75062 12.5238,1.22701 20.8235,0.15365 37.1578,-4.80538 21.5492,-6.5423 31.1654,-13.00662 40.8181,-27.4393 3.1266,-4.675 6.3592,-9.83633 7.1834,-11.46962 2.3985,-4.75317 8.5514,-10.31242 12.6835,-11.45987 2.0983,-0.58265 7.7272,-1.06187 12.5089,-1.06493 l 8.6939,-0.006 5.5073,7.31756 c 3.0291,4.02466 7.7483,9.41365 10.4871,11.97554 10.927,10.22087 31.0177,20.7455 44.6178,23.3733 10.9741,2.1204 29.9317,2.14409 40.248,0.0503 12.8245,-2.60287 25.0145,-9.63599 35.0183,-20.20405 7.4638,-7.88478 14.8273,-11.83608 20.2337,-10.8575 5.5554,1.00557 7.3654,2.74748 27.1168,26.09659 4.1893,4.95233 13.3691,17.71065 20.3997,28.35181 12.78,19.34335 12.7829,19.34908 13.2792,26.28504 0.431,6.02419 0.289,6.85791 -1.0787,6.33308 -10.1668,-3.90138 -25.1559,0.90347 -31.1174,9.97488 -6.1596,9.37273 -5.7207,20.29721 1.1373,28.30925 5.3122,6.20605 11.9215,8.97234 21.466,8.98444 l 7.7028,0.01 -0.541,5.25 c -1.0388,10.08096 -3.353,15.88045 -10.564,26.47418 l -7.0268,10.32306 -1.7404,-3.27362 c -0.9573,-1.80049 -3.6452,-4.62362 -5.9731,-6.27362 -3.7025,-2.62423 -5.0674,-2.99537 -10.8966,-2.96301 -10.948,0.0608 -19.8235,6.33672 -25.2837,17.87831 -3.9649,8.38105 -3.9418,15.20091 0.075,22.20467 3.0113,5.25027 10.6687,11.38003 14.2161,11.38003 1.0057,0 1.8286,0.2244 1.8286,0.49866 0,0.27426 -2.0519,3.14092 -4.5598,6.37036 -3.8123,4.90911 -5.8609,6.48226 -12.4961,9.59597 -4.3649,2.04835 -9.7259,3.96431 -11.9132,4.25769 -3.6756,0.493 -4.1116,0.28942 -5.7539,-2.68697 -9.7537,-17.67618 -20.5324,-31.03551 -25.0406,-31.03551 -3.0452,0 -4.1753,1.27461 -25.964,29.28448 -14.4129,18.52825 -19.285,24.11175 -22.046,25.26537 -1.9493,0.81449 -10.1102,3.129 -18.1353,5.14335 -12.3939,3.11094 -16.3244,3.67334 -26.1014,3.73463 -9.9419,0.0623 -11.9491,-0.20571 -14.7313,-1.96726 -1.7716,-1.12169 -10.8888,-9.19165 -20.2605,-17.93326 -23.7768,-22.17812 -28.4309,-25.52731 -35.4732,-25.52731 -7.6269,0 -21.4937,14.94095 -35.3747,38.11477 -5.0925,8.50177 -5.221,8.6231 -9.7947,9.25 -7.0574,0.96732 -19.0586,0.60003 -26.8553,-0.8219 z m -44.1549,-115.086 c -0.3257,-0.84872 -0.8067,-1.32866 -1.0688,-1.06653 -0.2621,0.26213 -0.18,0.95654 0.1826,1.54313 0.986,1.59546 1.5623,1.28551 0.8862,-0.4766 z m 54.101,-44.83582 c 9.878,-4.21269 15.787,-11.61207 15.9071,-19.9193 0.1946,-13.46681 -13.0905,-22.17382 -43.1856,-28.30374 -7.0098,-1.42779 -16.2407,-2.60566 -20.6676,-2.6372 -27.083,-0.19299 -39.8129,23.07566 -21.6175,39.51409 10.5495,9.53082 27.5944,13.84143 52.6175,13.30683 9.4487,-0.20187 14.078,-0.73748 16.9461,-1.96068 z m 120.0938,-8.17305 c 7.4139,-1.93057 13.4514,-5.41467 18.7103,-10.79725 7.2748,-7.44585 11.2503,-19.57401 8.8251,-26.92266 -0.9299,-2.81742 -1.8037,-3.64038 -4.3688,-4.11451 -1.7636,-0.32598 -4.5483,-0.2297 -6.1883,0.21395 -3.0894,0.83572 -3.7105,2.13012 -5.0295,10.48213 -0.7879,4.98863 -6.321,11.07897 -12.0546,13.26864 -6.3039,2.40748 -15.5146,1.51129 -23.6302,-2.29917 -9.1444,-4.29352 -12.4412,-7.45266 -14.4597,-13.85598 -1.9597,-6.21697 -4.1709,-8.67315 -7.808,-8.67315 -5.2608,0 -9.1404,6.61054 -7.9975,13.62693 2.1584,13.25113 16.3658,25.10974 34.9231,29.14959 8.1429,1.77267 12.0304,1.75667 19.0781,-0.0785 z m 114.0501,-0.44725 c 9.9649,-2.51864 20.9138,-7.84562 25.7205,-12.51389 10.0327,-9.74358 10.3309,-22.56143 0.6895,-29.63788 -7.2649,-5.33215 -26.9864,-7.21837 -45,-4.30392 -22.5936,3.65544 -34.0926,14.2668 -32.7681,30.23856 0.5186,6.25314 2.8395,9.81873 8.4226,12.93977 9.8771,5.52141 28.4484,6.939 42.9355,3.27736 z m 215.91,155.27583 c -11.6246,-10.11538 -15.8355,-14.36209 -34.7158,-35.01144 -15.7863,-17.26532 -23.0878,-24.08724 -29.3183,-27.39252 l -4.3181,-2.29074 -9.8239,3.31104 c -5.4032,1.82108 -15.6563,6.00436 -22.7848,9.29618 -13.9275,6.4315 -23.49,8.9265 -26.0546,6.79804 -3.4209,-2.83905 -2.2436,-6.55443 9.7476,-30.76339 l 8.062,-16.27624 10.1029,-5.65875 c 5.5567,-3.11231 14.0607,-8.05316 18.8979,-10.97966 13.7702,-8.33101 18.3349,-10.37177 23.7101,-10.60036 4.5845,-0.19496 5.213,0.0884 9.5176,4.29126 7.949,7.76113 26.4981,36.69019 38.304,59.73854 2.3209,4.5312 5.7833,10.8312 7.6941,14 1.9108,3.1688 3.4753,6.12862 3.4767,6.57738 10e-4,0.44876 3.9712,6.97911 8.8217,14.51189 4.8506,7.53279 9.3165,15.12244 9.9243,16.8659 2.1856,6.26972 -1.5837,12.31391 -7.6677,12.29543 -3.0541,-0.009 -5.0346,-1.28037 -13.5757,-8.71256 z m -526.3879,-26.65722 -2.2365,-2.38063 6.2967,-8.65896 c 5.6124,-7.71805 6.4341,-8.4709 7.5621,-6.92824 3.1129,4.25706 0.4877,13.83305 -5.0629,18.46849 -2.8816,2.40648 -3.9014,2.32864 -6.5594,-0.50066 z m -12.5196,-12.51712 c -1.6227,-1.79306 -1.6293,-2.13053 -0.099,-5.0899 2.2925,-4.43323 13.3837,-9.14485 14.7417,-6.26234 0.1943,0.4125 -2.6298,3.56759 -6.2758,7.01131 -6.4603,6.10187 -6.6733,6.21241 -8.367,4.34093 z m 375.8579,-10.50884 c -4.3852,-1.91009 -8.4504,-7.13174 -8.4504,-10.8544 0,-3.30635 3.225,-10.8509 5.4153,-12.66875 1.058,-0.878 1.5292,0.5656 2.4086,7.37778 0.6013,4.65816 2.0119,10.27003 3.1347,12.47083 2.9386,5.76009 2.7876,5.98125 -2.5082,3.67454 z m 12.5496,-10.69605 c 0,-0.60645 -1.7562,-4.85014 -3.9025,-9.43041 -3.2842,-7.0081 -3.6561,-8.42234 -2.3474,-8.92454 2.915,-1.11858 7.9777,1.45738 10.7627,5.47616 l 2.7262,3.93386 -3.2238,5.02379 c -3.3055,5.15128 -4.0152,5.84434 -4.0152,3.92114 z m -419,-28.36095 c 0,-0.92268 1.759,-3.78332 3.9089,-6.35699 2.1499,-2.57368 5.4833,-7.31497 7.4076,-10.53621 3.0741,-5.14593 3.6206,-5.62919 4.5024,-3.98159 1.5423,2.88183 2.4713,9.04591 1.779,11.80414 -0.8825,3.51615 -4.3035,6.36438 -9.5637,7.96239 -2.4938,0.75762 -5.3217,1.69437 -6.2842,2.08166 -1.2511,0.50341 -1.75,0.22588 -1.75,-0.9734 z m -4.4173,-19.41767 c -0.2579,-0.8903 -0.7705,-3.75623 -1.1393,-6.36873 l -0.6705,-4.75 h 6.5545 c 3.605,0 6.7395,0.3375 6.9656,0.75 0.226,0.4125 -2.2108,3.27843 -5.4153,6.36873 -4.454,4.29536 -5.9367,5.23748 -6.295,4 z m 439.8969,-25.98899 c -5.856,-2.66022 -8.0325,-8.62734 -5.3191,-14.58269 1.4915,-3.27358 2.0184,-3.20699 4.2285,0.53445 1.0012,1.69483 4.4732,5.79269 7.7157,9.10636 3.2424,3.31367 5.8953,6.20199 5.8953,6.4185 0,1.16167 -9.0665,0.0924 -12.5204,-1.47662 z m -477.0172,-8.22114 c -9.5294,-9.77708 -39.2537,-32.69087 -48.5876,-37.45504 -4.9404,-2.52163 -6.2438,-4.37433 -5.093,-7.23952 0.9664,-2.40619 18.7934,-18.94444 21.2669,-19.72951 6.8894,-2.18661 51.9513,20.21324 51.9513,25.82451 0,0.49673 -1.2849,2.54291 -2.8553,4.54706 -5.3401,6.81487 -5.5409,7.67059 -5.2728,22.46774 0.1723,9.51131 -0.1188,14.26876 -0.9332,15.25 -2.209,2.66164 -5.3968,1.54635 -10.4763,-3.66524 z m 487.8116,-9.32773 c -5.1683,-4.32785 -5.1972,-4.38333 -2.6216,-5.02976 1.4323,-0.3595 3.8965,-0.36982 5.4759,-0.0229 2.634,0.57852 2.8717,0.99655 2.8717,5.05127 0,2.43129 -0.1125,4.41086 -0.25,4.39903 -0.1375,-0.0118 -2.6017,-1.99076 -5.476,-4.39762 z m 24.1151,-18.56058 c -2.98,-1.20407 -3.5084,-3.26973 -3.2965,-12.88494 0.1762,-7.99625 0.049,-8.557 -2.3431,-10.29931 -2.7239,-1.98417 -12.6752,-13.93826 -14.585,-17.5203 -0.6405,-1.20134 -1.1645,-2.83458 -1.1645,-3.62942 0,-6.02293 31.1518,-24.88089 52.288,-31.65285 3.2051,-1.02691 4.1669,-0.96544 6.25,0.39948 1.3541,0.88724 2.462,1.85408 2.462,2.14855 0,2.17202 2.333,15.59433 3.2014,18.4185 1.5959,5.19017 4.539,8.8647 8.3883,10.47303 3.6509,1.52544 5.6223,5.00014 4.7435,8.36058 -0.6958,2.66097 -20.9064,18.04037 -34.3332,26.12619 -11.7799,7.09397 -18.734,11.0713 -19.1925,10.97681 -0.1691,-0.0349 -1.2574,-0.4472 -2.4184,-0.91632 z m -587.8891,-34.68192 c -7.3253,-3.86179 -10.7857,-9.26412 -10.7857,-16.83837 0,-12.90704 12.38,-21.73995 25.1535,-17.94661 9.9225,2.94667 13.6275,8.32614 12.9596,18.81647 -0.4796,7.53139 -3.5676,12.43661 -9.8455,15.63937 -4.7512,2.42385 -13.2066,2.58304 -17.4819,0.32914 z m 651,-19.91096 c -10.0114,-5.20682 -12.3819,-15.9366 -5.3023,-23.99987 4.0516,-4.61442 7.7233,-6.42839 13.0026,-6.4238 9.9098,0.009 16.8502,9.07829 14.6492,19.14343 -0.5235,2.39406 -1.7598,5.32999 -2.7474,6.52431 -4.8679,5.88709 -13.432,7.96494 -19.6021,4.75593 z m -425.0905,-2.85211 c -21.0911,-4.79486 -38.4007,-17.8656 -47.3851,-35.78112 -5.0262,-10.02276 -6.4081,-16.93171 -5.7598,-28.79596 0.9685,-17.72332 8.4747,-34.75332 20.7629,-47.10679 14.5742,-14.65159 31.8539,-20.02797 55.5996,-17.29915 9.3052,1.06934 12.9611,2.04814 22.3289,5.97801 6.1611,2.58461 13.348,6.32614 15.9709,8.3145 11.5775,8.77667 23.2275,25.75662 26.0874,38.02272 1.5237,6.53543 0.772,20.90838 -1.5478,29.59249 -0.8815,3.3 -3.4347,9.825 -5.6738,14.5 -7.0427,14.70466 -18.6209,24.1999 -37.2927,30.58342 -6.9922,2.39048 -9.8268,2.77546 -22.5,3.05577 -9.8316,0.21746 -16.4609,-0.12506 -20.5905,-1.06389 z m 35.0489,-20.10649 c 3.2333,-0.84216 8.5981,-2.97966 11.9218,-4.75 7.8214,-4.166 19.1978,-15.6039 22.3578,-22.47877 4.5997,-10.007 3.8669,-25.25354 -1.7422,-36.24827 -1.9688,-3.85916 -9.217,-10.99177 -11.17,-10.99177 -0.6426,0 -1.97,-0.72551 -2.9499,-1.61225 -1.6641,-1.50602 -1.8234,-1.42367 -2.4185,1.25 -2.2967,10.31919 -7.8926,17.505 -16.7437,21.50099 -4.2958,1.93944 -6.8862,2.3545 -14.7137,2.35755 -8.3851,0.003 -10.1693,-0.32494 -15.2026,-2.79665 -10.1397,-4.97927 -16.7974,-14.51777 -16.7974,-24.06566 0,-1.99869 -0.2113,-3.63398 -0.4696,-3.63398 -0.2583,0 -2.1708,0.94062 -4.25,2.09027 -4.5743,2.52924 -10.708,8.28551 -13.3356,12.51519 -2.697,4.34129 -5.2937,17.72542 -4.6496,23.96578 0.5485,5.31437 5.5782,16.63155 8.7209,19.62266 0.9789,0.93164 1.9862,2.28164 2.2385,3 0.3445,0.98077 1.1794,0.78426 3.3521,-0.78897 5.9123,-4.28114 9.7425,-5.65898 15.8924,-5.71683 7.9405,-0.0747 14.2362,2.87944 18.1392,8.51157 2.5541,3.68546 2.8617,4.97158 2.8617,11.96483 v 7.8355 h 6.5399 c 3.5969,0 9.1853,-0.68904 12.4185,-1.53119 z m 156.0416,9.19873 c -25.9778,-5.45667 -42.967,-23.4459 -48.195,-51.03198 -5.4175,-28.58562 9.9451,-57.54896 38.0849,-71.8022 9.6872,-4.90671 18.1985,-6.79784 30.6101,-6.80122 12.0258,-0.003 20.186,1.92289 30.1852,7.12502 10.1152,5.2625 14.9594,10.09468 21.9195,21.86475 8.3148,14.06121 9.406,17.5645 9.3367,29.97809 -0.05,8.95831 -0.4697,11.6012 -2.8586,18 -6.2508,16.74321 -13.8903,28.0854 -25.2003,37.41444 -15.4403,12.73588 -36.9195,18.81621 -53.8825,15.2531 z m 33.3466,-25.21047 c 13.2797,-4.62495 27.1571,-19.547 30.6129,-32.91717 4.1914,-16.21652 -0.6555,-30.14972 -13.8005,-39.67196 -4.7725,-3.45714 -5.6523,-3.55284 -5.681,-0.61794 -0.068,6.98225 -9.9547,18.19111 -18.662,21.15797 -5.2974,1.80503 -13.1083,2.05527 -18.3863,0.58907 -7.6429,-2.12314 -18.9126,-12.9889 -18.9254,-18.24704 0,-0.9625 -0.1694,-1.75 -0.3711,-1.75 -1.3791,0 -12.7431,12.2683 -14.4203,15.56781 -2.9258,5.75597 -4.6337,19.24273 -3.2525,25.68329 1.4092,6.57086 6.3978,15.84649 11.6314,21.62724 l 4.1651,4.60046 4.5072,-4.15458 c 2.4789,-2.28502 6.0211,-4.95029 7.8715,-5.92283 4.4884,-2.35902 15.1819,-2.39005 19.6186,-0.0569 3.7899,1.99299 7.9239,7.79604 8.849,12.4219 0.7458,3.72871 0.5466,3.67477 6.2434,1.69071 z m -428.4601,10.12767 c -6.8185,-6.25181 -16.1216,-8.07895 -25.9776,-5.10206 -5.3399,1.61286 -7.8967,1.29456 -8.8145,-1.09736 -0.723,-1.88405 3.1479,-17.82353 8.1715,-33.64817 l 3.7341,-11.76286 5,-2.47897 c 6.6614,-3.30267 15.6126,-4.16078 21.4384,-2.05521 4.937,1.78434 14.4693,8.58476 15.9738,11.39582 0.6278,1.17306 0.6304,4.2686 0.01,8.74022 -1.4938,10.72267 -7.58,35.51611 -9.0777,36.98031 -3.1276,3.05748 -6.3919,2.7541 -10.4555,-0.97172 z m 660.5578,-4.16225 c -9.9887,-7.47493 -16.2924,-9.07841 -24.7515,-6.29598 -6.9519,2.28669 -11.9426,1.97606 -14.397,-0.89607 -0.8133,-0.95174 -2.1938,-4.20544 -3.0678,-7.23044 -0.8741,-3.025 -3.4187,-11.35 -5.6548,-18.5 -2.2361,-7.15 -4.0673,-14.138 -4.0694,-15.52889 0,-1.78666 1.8954,-4.41127 6.4673,-8.94246 l 6.4711,-6.41357 9.2789,0.21382 9.2789,0.21382 4.8285,5.13381 c 10.8758,11.56336 29.6715,43.73643 29.6715,50.78944 0,2.34458 -0.9351,4.16912 -3.4,6.63403 -4.0753,4.07524 -6.1003,4.23155 -10.6557,0.82249 z m -631.5694,-45.67249 c -3.7145,-7.3348 -6.8391,-11.17744 -12.2497,-15.06454 -4.5477,-3.26722 -4.6568,-3.46971 -4.2983,-7.97726 0.2023,-2.54372 0.8865,-5.02332 1.5205,-5.51021 2.0191,-1.5508 12.8416,-4.08441 22.6526,-5.30314 5.225,-0.64905 10.4691,-1.53829 11.6536,-1.97608 1.47,-0.54332 4.5431,-5.49754 9.6811,-15.60738 4.1401,-8.14626 9.3128,-17.73639 11.495,-21.31139 2.992,-4.90189 3.6477,-6.68312 2.667,-7.24481 -0.7154,-0.40965 -2.5385,-2.88465 -4.0515,-5.5 -1.5131,-2.61536 -5.3212,-8.35519 -8.4625,-12.75519 -8.5138,-11.92512 -9.3486,-13.86123 -7.8867,-18.29097 1.326,-4.01773 15.2518,-18.54989 18.8792,-19.70118 1.3186,-0.4185 3.1204,-0.02 4.7565,1.05202 4.9857,3.26677 19.5389,18.96683 30.0136,32.37881 l 10.4955,13.43867 -0.5474,5.06133 c -0.7458,6.89568 -6.7504,27.00244 -11.5158,38.56132 -2.1542,5.225 -7.2001,16.19589 -11.2133,24.37976 -6.9185,14.10841 -7.5141,14.97589 -11.4891,16.73424 -8.208,3.63079 -37.1517,9.8107 -46.2084,9.86619 -2.9029,0.0178 -3.5047,-0.51643 -5.8919,-5.23019 z m 553.6113,-5.69791 c -0.8326,-0.4879 -13.8826,-13.11361 -29,-28.05713 -15.1174,-14.94352 -31.7612,-30.89928 -36.9862,-35.45726 -12.6524,-11.03717 -23.7352,-22.63345 -24.483,-25.61739 -0.8359,-3.33517 0.4131,-6.52309 16.1025,-41.10058 14.7266,-32.45556 16.6461,-36.07566 20.1177,-37.94155 3.5739,-1.92087 9.8373,0.39818 11.9114,4.41022 0.9132,1.76638 4.8533,7.6194 8.7558,13.0067 12.7946,17.66243 12.6045,16.76763 5.9989,28.22911 -5.8104,10.08165 -8.6969,16.62687 -7.6885,17.4337 0.4319,0.3455 3.7102,1.94632 7.2852,3.55738 12.652,5.70158 21.4278,12.35698 22.6348,17.16569 0.4441,1.76973 -0.7942,4.57153 -4.9032,11.09338 -3.0235,4.7991 -6.4618,10.64321 -7.6405,12.9869 l -2.1433,4.26126 9.2761,8.82237 c 5.1018,4.85231 12.8761,12.08253 17.2761,16.06717 4.4,3.98463 8.3656,8.222 8.8124,9.41636 1.6965,4.53476 -1.6146,13.57203 -7.1395,19.48651 -2.9997,3.21117 -5.4036,3.86808 -8.1867,2.23716 z m -623.0856,-6.03066 c -4.2795,-2.27648 -32.1455,-28.15591 -39.7146,-36.88347 -8.2309,-9.49057 -12.186,-15.87788 -12.186,-19.67998 0,-3.86507 11.5493,-39.2976 16.0477,-49.2336 1.6745,-3.69841 4.7112,-9.53088 6.7484,-12.96104 3.5576,-5.99032 4.0044,-6.35226 11.3131,-9.1636 19.551,-7.5205 35.5698,-11.36204 47.2587,-11.33339 9.4163,0.0231 11.9141,1.42688 15.6321,8.78562 2.2336,4.42078 2.4821,6.05274 2.3327,15.31533 -0.092,5.70202 -0.5807,10.78069 -1.086,11.28593 -0.5052,0.50524 -8.462,2.897 -17.6816,5.31502 -9.2197,2.41803 -16.942,4.57528 -17.1606,4.7939 -0.8661,0.86609 -6.58,18.37201 -8.8236,27.03303 -2.3648,9.12901 -2.3675,9.20278 -0.4772,12.90817 2.2553,4.42073 14.6999,19.43549 21.3809,25.79665 5.1276,4.88208 12.5154,14.2904 12.5154,15.93825 0,0.563 -1.2375,1.28319 -2.75,1.60041 -12.6955,2.66268 -15.9051,3.97281 -20.75,8.46988 -4.0551,3.76403 -8.0943,4.40933 -12.5994,2.01289 z m 642.0525,-36.27143 c -11.6782,-11.9614 -14.8958,-15.83552 -14.921,-17.96517 -0.032,-2.71233 6.9376,-14.39951 14.3918,-24.13309 2.0421,-2.66655 3.5502,-5.01095 3.3514,-5.20978 -0.1989,-0.19884 -7.0921,-4.69529 -15.3184,-9.99213 -17.0022,-10.94754 -20.4569,-13.84833 -20.4569,-17.17676 0,-3.46386 3.2169,-9.1904 10.5941,-18.8591 3.6069,-4.72733 6.4113,-8.72517 6.232,-8.88409 -0.1794,-0.15891 -6.0093,-3.53364 -12.9553,-7.49939 -7.1916,-4.10592 -13.1661,-8.21375 -13.8763,-9.54066 -1.8568,-3.46961 -0.5393,-8.35437 5.2053,-19.29817 8.8941,-16.94368 17.2755,-27.19166 22.239,-27.19166 1.2569,0 4.2599,1.56587 6.6733,3.47972 2.4133,1.91384 7.3129,5.77554 10.8879,8.58155 3.575,2.80601 13.475,11.52197 22,19.36881 8.525,7.84683 20.45,18.55807 26.5,23.80275 16.7426,14.51403 39.2984,37.11585 40.0572,40.13898 1.7404,6.93455 -2.3417,15.19647 -22.7916,46.12819 -21.4662,32.46894 -24.4376,36.465 -28.3211,38.08762 -2.1908,0.9154 -7.1141,1.41238 -13.9914,1.41238 h -10.6111 z"
       id="path28012"
       sodipodi:nodetypes="sssssssssssscsssssssscssssssssssssssssssssssssscsscsssssssssssssssssscssssssssssssssscsssssssssssssssssssssssssssssscssssssssssccssssssssssssccsscssssssssssssssssssssssssssssssssssssssssssssssssssssssssscsssscsssssscsscsscssssssssssssssssssscsssssssssssscsssssssssssssssssssssssssssssssssssssssssssssssscsssssssssssssssssssssssscsssssssssssscssssscsssssssssssscsssscsssssscssscssscsccssssscscccssssssssssssssssscscsssssssssssssssssssscsssssssssssssssssssssssssssssssssssssssssssscs" />
  </g>
</svg>
